<svg xmlns="http://www.w3.org/2000/svg" viewBox="0 0 16 16"><defs><style>.cls-1{fill:none;}.cls-2{fill:#f2ac0f;}.cls-3{fill:#3680c9;}</style></defs><title>资源 2xxxhdpi</title><g id="图层_2" data-name="图层 2"><g id="图层_1-2" data-name="图层 1"><rect class="cls-1" width="16" height="16"/><path class="cls-2" d="M11.1,6.28,8,7.69,4.9,6.28c-.27,1.28-.61,3-.82,4.1a42.14,42.14,0,0,1,3.54,5,.33.33,0,0,0-.09.23.36.36,0,0,0,.36.36h0V9.42a.29.29,0,0,1-.2-.29.31.31,0,0,1,.62,0,.29.29,0,0,1-.2.29V16h0a.36.36,0,0,0,.36-.36.33.33,0,0,0-.09-.23,43,43,0,0,1,3.54-5C11.71,9.28,11.37,7.56,11.1,6.28Z"/><polygon class="cls-3" points="14.96 7.12 14.93 7.12 14.93 4.12 16 3.63 8 0 0 3.64 8 7.27 14.59 4.28 14.59 7.12 14.53 7.12 14.28 7.12 14.1 9.56 14.53 9.56 14.96 9.56 15.39 9.56 15.21 7.12 14.96 7.12"/></g></g></svg>